<svg width="6" height="8" viewBox="0 0 6 8" fill="none" xmlns="http://www.w3.org/2000/svg">
<path d="M0.575791 6.58386C0.802458 6.40386 0.905791 6.32052 0.885791 6.33386C1.53912 5.79386 2.05246 5.35052 2.42579 5.00386C2.80579 4.65719 3.12579 4.29386 3.38579 3.91386C3.64579 3.53386 3.77579 3.16386 3.77579 2.80386C3.77579 2.53052 3.71246 2.31719 3.58579 2.16386C3.45912 2.01052 3.26912 1.93386 3.01579 1.93386C2.76246 1.93386 2.56246 2.03052 2.41579 2.22386C2.27579 2.41052 2.20579 2.67719 2.20579 3.02386H0.555791C0.569124 2.45719 0.689124 1.98386 0.915791 1.60386C1.14912 1.22386 1.45246 0.943857 1.82579 0.763857C2.20579 0.583857 2.62579 0.493857 3.08579 0.493857C3.87912 0.493857 4.47579 0.69719 4.87579 1.10386C5.28246 1.51052 5.48579 2.04052 5.48579 2.69386C5.48579 3.40719 5.24246 4.07052 4.75579 4.68386C4.26912 5.29052 3.64912 5.88386 2.89579 6.46386H5.59579V7.85386H0.575791V6.58386Z" fill="white"/>
</svg>
