<svg width="68" height="81" viewBox="0 0 68 81" fill="none" xmlns="http://www.w3.org/2000/svg">
<path d="M0.158691 64.0343V80.8305H67.8263V64.0343C67.8236 62.1617 67.0002 60.3665 65.5367 59.0424C64.0731 57.7182 62.0889 56.9733 60.0191 56.9709H7.96591C5.89613 56.9733 3.91187 57.7182 2.44831 59.0424C0.984751 60.3665 0.161353 62.1617 0.158691 64.0343H0.158691ZM5.36351 64.0343C5.3645 63.4101 5.63901 62.8118 6.12683 62.3704C6.61466 61.929 7.27602 61.6807 7.96591 61.6798H10.5683V76.125H5.36351V64.0343ZM15.7744 61.6798H22.5042L33.9925 72.0736L45.4808 61.6798H52.2068V76.125H15.7744V61.6798ZM62.6215 64.0343V76.1216H57.4167V61.6764H60.0191C60.7096 61.6773 61.3716 61.9261 61.8595 62.3682C62.3474 62.8103 62.6215 63.4095 62.6215 64.0343ZM38.1199 61.6798L33.9925 65.414L29.8651 61.6798H38.1199Z" fill="#FF6875"/>
<path d="M53.464 47.5485H57.4204V42.8396H60.0229C62.0926 42.8372 64.0769 42.0922 65.5405 40.7681C67.004 39.444 67.8274 37.6488 67.8301 35.7762V31.0673C67.8297 22.9485 64.2646 15.1624 57.9189 9.42171C51.5733 3.68107 42.9669 0.45618 33.9931 0.456482C25.0193 0.456784 16.4132 3.68225 10.068 9.42332C3.72286 15.1644 0.158358 22.9508 0.158691 31.0696L0.158691 35.7785C0.161353 37.6511 0.984751 39.4463 2.44831 40.7704C3.91187 42.0945 5.89613 42.8395 7.96591 42.8419H11.9085C13.3559 46.5505 15.9159 49.8214 19.3018 52.2882C22.6876 54.755 26.7657 56.3203 31.0792 56.8089C35.3928 57.2974 39.7715 56.6899 43.725 55.0544C47.6786 53.4189 51.0508 50.8199 53.464 47.5485ZM60.0229 38.1295H57.2696C57.3665 37.3478 57.4152 36.5617 57.4154 35.7751V31.0662C57.4152 30.2795 57.3665 29.4935 57.2696 28.7117H60.0178C60.7077 28.7126 61.3691 28.961 61.8569 29.4023C62.3447 29.8437 62.6192 30.442 62.6202 31.0662V35.7751C62.6206 36.4 62.3467 36.9995 61.8587 37.4419C61.3707 37.8842 60.7086 38.1332 60.0178 38.1341L60.0229 38.1295ZM33.9925 5.16824C40.2502 5.17553 46.3336 7.03433 51.3148 10.4612C56.2959 13.888 59.9016 18.6948 61.5818 24.1484C61.0675 24.0536 60.5439 24.006 60.0191 24.0062H56.0752C54.4607 19.8746 51.47 16.2974 47.5151 13.7673C43.5602 11.2372 38.8356 9.8786 33.9919 9.8786C29.1481 9.8786 24.4235 11.2372 20.4686 13.7673C16.5137 16.2974 13.5231 19.8746 11.9085 24.0062H7.96591C7.44105 24.006 6.91751 24.0536 6.40321 24.1484C8.0834 18.6948 11.689 13.888 16.6702 10.4612C21.6514 7.03433 27.7348 5.17553 33.9925 5.16824ZM48.9381 21.6563C47.2554 23.8311 45.019 25.6078 42.4178 26.8364C39.8166 28.0649 36.9268 28.7093 33.9925 28.7151H15.9605C16.4815 25.4413 18.0795 22.3852 20.5467 19.9444C23.0138 17.5035 26.2357 15.791 29.7934 15.0294C33.351 14.2679 37.0796 14.4928 40.4941 15.6747C43.9086 16.8566 46.8508 18.9408 48.9381 21.6563ZM7.96591 38.1341C7.27602 38.1332 6.61466 37.8848 6.12683 37.4435C5.63901 37.0021 5.3645 36.4038 5.36351 35.7796V31.0707C5.3645 30.4465 5.63901 29.8482 6.12683 29.4069C6.61466 28.9655 7.27602 28.7172 7.96591 28.7162H10.7192C10.6223 29.498 10.5736 30.284 10.5733 31.0707V35.7796C10.5736 36.5663 10.6223 37.3523 10.7192 38.1341H7.96591ZM15.7731 35.7796V33.4252H33.9925C37.288 33.4196 40.5453 32.7874 43.5533 31.5693C46.5612 30.3513 49.2525 28.5748 51.4525 26.355C51.9583 27.8846 52.2145 29.4729 52.2131 31.0696V35.7785C52.2159 38.2222 51.6146 40.6356 50.453 42.8419H41.7997L39.5091 40.774C38.0448 42.0987 36.0588 42.8428 33.9881 42.8428C31.9174 42.8428 29.9314 42.0987 28.4671 40.774L24.7873 44.1033C27.0021 46.1071 29.9416 47.3209 33.0659 47.5219C36.1903 47.7229 39.29 46.8976 41.7959 45.1975V47.5485H46.7242C44.1629 49.8185 40.9179 51.3538 37.396 51.962C33.8741 52.5701 30.2321 52.224 26.9268 50.967C23.6215 49.71 20.7999 47.5981 18.8159 44.8961C16.832 42.1941 15.7739 39.0223 15.7744 35.7785L15.7731 35.7796Z" fill="#FF6875"/>
</svg>
