<svg width="25" height="23" viewBox="0 0 25 23" fill="none" xmlns="http://www.w3.org/2000/svg">
<path d="M12.0422 21.3342C18.0208 21.3342 23.0422 16.9278 23.0422 11.287C23.0422 5.6462 18.0208 1.23975 12.0422 1.23975C6.06366 1.23975 1.04224 5.6462 1.04224 11.287C1.04224 16.9278 6.06366 21.3342 12.0422 21.3342Z" fill="#FB7181" stroke="white" stroke-width="2"/>
<path d="M9.57579 14.5839C9.80246 14.4039 9.90579 14.3205 9.88579 14.3339C10.5391 13.7939 11.0525 13.3505 11.4258 13.0039C11.8058 12.6572 12.1258 12.2939 12.3858 11.9139C12.6458 11.5339 12.7758 11.1639 12.7758 10.8039C12.7758 10.5305 12.7125 10.3172 12.5858 10.1639C12.4591 10.0105 12.2691 9.93386 12.0158 9.93386C11.7625 9.93386 11.5625 10.0305 11.4158 10.2239C11.2758 10.4105 11.2058 10.6772 11.2058 11.0239H9.55579C9.56912 10.4572 9.68912 9.98386 9.91579 9.60386C10.1491 9.22386 10.4525 8.94386 10.8258 8.76386C11.2058 8.58386 11.6258 8.49386 12.0858 8.49386C12.8791 8.49386 13.4758 8.69719 13.8758 9.10386C14.2825 9.51052 14.4858 10.0405 14.4858 10.6939C14.4858 11.4072 14.2425 12.0705 13.7558 12.6839C13.2691 13.2905 12.6491 13.8839 11.8958 14.4639H14.5958V15.8539H9.57579V14.5839Z" fill="white"/>
</svg>
