<svg width="70" height="72" viewBox="0 0 70 72" fill="none" xmlns="http://www.w3.org/2000/svg">
<path d="M55.7186 15.4579L51.947 19.8404C57.2931 23.5894 60.9773 28.9475 62.3316 34.9432C63.686 40.9388 62.6208 47.1751 59.3292 52.5212C56.0377 57.8673 50.7376 61.9694 44.3901 64.0836C38.0425 66.1978 31.0677 66.1842 24.7303 64.0452C18.3929 61.9062 13.1125 57.7835 9.84646 52.4246C6.58042 47.0657 5.54501 40.8253 6.92795 34.835C8.3109 28.8447 12.0206 23.501 17.3846 19.7729C22.7485 16.0448 29.4114 14.179 36.1653 14.5138L30.8587 19.5503L34.795 22.949L43.1717 14.987L46.9245 11.4212L42.9944 8.03625L34.2003 0.456482L30.4451 4.02229L36.1729 8.95869C27.3874 8.59674 18.7824 11.293 12.1261 16.4933C5.46986 21.6936 1.268 29.0029 0.384015 36.9193C-0.49997 44.8357 2.00107 52.7577 7.37317 59.0574C12.7453 65.3571 20.5804 69.556 29.2683 70.7911C31.061 71.0474 32.8732 71.1763 34.6881 71.1767C41.8532 71.1605 48.8341 69.1214 54.6569 65.3437C60.4796 61.566 64.8538 56.2382 67.1693 50.1035C69.4848 43.9689 69.626 37.3333 67.5733 31.1225C65.5206 24.9118 61.3763 19.4356 55.7186 15.4579Z" fill="#FF6875"/>
<path d="M37.985 55.9204V52.7243C42.174 52.3012 46.2486 49.908 46.2486 45.3629C46.2486 39.1878 39.9022 38.4804 35.2669 37.964C32.3037 37.6432 30.0345 37.2713 30.0345 35.6471C30.0345 33.3881 33.5546 33.1447 35.0633 33.1447C37.3086 33.1447 39.7049 34.1002 40.5195 35.3183L40.7559 35.6732L45.4075 33.7237L45.1774 33.2994C44.4871 32.0645 43.4669 31.005 42.2094 30.217C40.9518 29.4291 39.4968 28.9377 37.9762 28.7873V25.9722H32.5325V28.7736C27.4572 29.4561 24.4424 31.9994 24.4424 35.6459C24.4424 41.5912 30.4091 42.194 34.7628 42.6365C38.6425 43.0505 40.4478 43.9172 40.4478 45.3663C40.4478 48.1268 36.2224 48.3418 34.9275 48.3418C32.0447 48.3418 29.2701 47.0406 28.4604 45.3117L28.2605 44.8852L23.2091 46.8222L23.4103 47.2487C24.9076 50.421 28.1399 52.4081 32.5388 52.8778V55.9204H37.985Z" fill="#FF6875"/>
</svg>
