<svg width="102" height="60" viewBox="0 0 102 60" fill="none" xmlns="http://www.w3.org/2000/svg">
<path d="M101.46 30.6893C101.46 30.6722 101.46 30.6552 101.46 30.6381C101.451 30.0882 101.203 29.5636 100.77 29.1781C100.336 28.7927 99.7518 28.5775 99.144 28.5794H98.5355L89.1241 12.1323C88.9282 11.791 88.6321 11.5052 88.2684 11.3064C87.9046 11.1075 87.4873 11.0033 87.0623 11.0051H71.004L71.6163 6.61125C71.7166 5.77109 71.6186 4.92125 71.3288 4.11792C71.039 3.31458 70.564 2.57607 69.9352 1.95119C69.3064 1.3263 68.5382 0.829294 67.6813 0.493033C66.8244 0.156773 65.8984 -0.0110781 64.9644 0.000567001H15.1239C14.515 0.00351203 13.9289 0.210428 13.4787 0.581382C13.0285 0.952336 12.7462 1.46102 12.6862 2.00925L12.1833 5.62852H40.5835C41.0186 5.62648 41.4496 5.70383 41.8509 5.85595C42.2521 6.00806 42.6153 6.2318 42.9188 6.51381C43.2223 6.79582 43.4598 7.1303 43.6172 7.49725C43.7746 7.8642 43.8485 8.2561 43.8347 8.6495C43.807 9.45635 43.4345 10.222 42.7956 10.7855C42.1566 11.3489 41.301 11.6662 40.4088 11.6705H30.937V11.683H3.12773C2.49743 11.6859 1.89291 11.9097 1.44116 12.3074C0.989409 12.7051 0.725584 13.2457 0.705102 13.8157C0.694948 14.0941 0.747001 14.3715 0.858146 14.6312C0.969291 14.891 1.13724 15.1278 1.35194 15.3275C1.56663 15.5271 1.82366 15.6855 2.10762 15.7932C2.39158 15.9008 2.69664 15.9555 3.00452 15.954H39.8279C40.665 16.0691 41.4265 16.4578 41.9681 17.0466C42.5098 17.6354 42.7941 18.3834 42.7673 19.149C42.7372 20.0093 42.3413 20.8259 41.6621 21.4286C40.9828 22.0312 40.0727 22.3734 39.1214 22.3838H13.7398C13.1017 22.3868 12.4899 22.6138 12.0333 23.017C11.5767 23.4201 11.3109 23.9679 11.292 24.5449C11.2815 24.8262 11.3339 25.1065 11.446 25.369C11.5581 25.6316 11.7277 25.8709 11.9445 26.0727C12.1614 26.2745 12.421 26.4346 12.7079 26.5434C12.9948 26.6523 13.303 26.7076 13.614 26.706H38.7028C39.5479 26.8114 40.3203 27.1955 40.8716 27.7845C41.4229 28.3736 41.7143 29.1261 41.6899 29.8976C41.6599 30.762 41.2607 31.5822 40.576 32.1857C39.8914 32.7892 38.9747 33.129 38.0188 33.1336H9.24024H6.82139C6.18336 33.1366 5.57155 33.3636 5.11492 33.7667C4.65828 34.1699 4.39251 34.7177 4.37362 35.2947C4.36312 35.576 4.4155 35.8563 4.52763 36.1188C4.63976 36.3813 4.80932 36.6207 5.02615 36.8225C5.24298 37.0243 5.50262 37.1844 5.7895 37.2932C6.07638 37.402 6.38459 37.4573 6.69567 37.4558H8.78262L7.9667 45.1834C7.86662 46.0235 7.96476 46.8732 8.25465 47.6764C8.54453 48.4796 9.01955 49.218 9.6483 49.8427C10.2771 50.4675 11.0452 50.9644 11.902 51.3006C12.7588 51.6368 13.6847 51.8046 14.6185 51.793H16.4201C16.8429 53.9825 18.1085 55.9661 19.9928 57.3923C21.8771 58.8186 24.2586 59.5955 26.7153 59.5854C29.2142 59.5697 31.6342 58.7919 33.5841 57.3778C35.534 55.9638 36.8997 53.9961 37.4606 51.793H59.9281C61.7215 51.7785 63.4517 51.1916 64.8136 50.1357C66.0662 51.2154 67.7352 51.81 69.4652 51.793H69.8348C70.2576 53.9825 71.5232 55.9661 73.4075 57.3923C75.2918 58.8186 77.6733 59.5955 80.1301 59.5854C82.629 59.5697 85.049 58.7919 86.9988 57.3778C88.9487 55.9638 90.3145 53.9961 90.8754 51.793H92.3551C94.2624 51.7597 96.0907 51.0979 97.4969 49.9316C98.9031 48.7654 99.7905 47.1749 99.9926 45.4587L101.446 30.8997C101.446 30.8804 101.446 30.861 101.446 30.8406C101.446 30.8201 101.452 30.7814 101.453 30.7507C101.455 30.72 101.46 30.7063 101.46 30.6893ZM26.8398 55.2666C26.0632 55.2697 25.2938 55.1313 24.5777 54.8595C23.8615 54.5878 23.2131 54.1883 22.6713 53.6849C22.1295 53.1815 21.7053 52.5846 21.424 51.9297C21.1427 51.2748 21.0101 50.5753 21.034 49.873C21.0854 48.4329 21.7512 47.0667 22.8917 46.0611C24.0323 45.0555 25.559 44.4886 27.1516 44.4794C27.9282 44.4763 28.6975 44.6147 29.4137 44.8865C30.1299 45.1582 30.7782 45.5577 31.3201 46.0611C31.8619 46.5645 32.2861 47.1614 32.5674 47.8163C32.8487 48.4712 32.9813 49.1707 32.9573 49.873C32.906 51.3131 32.2402 52.6793 31.0997 53.6849C29.9591 54.6905 28.4324 55.2574 26.8398 55.2666ZM80.257 55.2666C79.4804 55.2697 78.7111 55.1313 77.9949 54.8595C77.2787 54.5878 76.6304 54.1883 76.0885 53.6849C75.5467 53.1815 75.1225 52.5846 74.8412 51.9297C74.5599 51.2748 74.4273 50.5753 74.4513 49.873C74.5026 48.4329 75.1684 47.0667 76.309 46.0611C77.4495 45.0555 78.9763 44.4886 80.5688 44.4794C81.3454 44.4763 82.1148 44.6147 82.8309 44.8865C83.5471 45.1582 84.1955 45.5577 84.7373 46.0611C85.2791 46.5645 85.7034 47.1614 85.9846 47.8163C86.2659 48.4712 86.3986 49.1707 86.3746 49.873C86.3232 51.3131 85.6575 52.6793 84.5169 53.6849C83.3763 54.6905 81.8496 55.2574 80.257 55.2666ZM95.2466 45.1789C95.1667 45.798 94.8434 46.3706 94.3356 46.7919C93.8278 47.2133 93.1695 47.4555 92.4808 47.4742H90.8816C90.3538 45.3907 89.0579 43.5318 87.2071 42.2032C85.3564 40.8746 83.0609 40.1554 80.6983 40.164C78.2934 40.1791 75.9588 40.8999 74.0454 42.2181C72.132 43.5363 70.7432 45.3807 70.0875 47.4742H69.596C69.3113 47.48 69.0284 47.4315 68.7659 47.3317C68.5033 47.232 68.267 47.0832 68.0722 46.8952C67.8816 46.7005 67.7383 46.4717 67.6516 46.2236C67.565 45.9755 67.537 45.7138 67.5694 45.4553L70.5766 15.3136H77.4824L76.3886 26.2897C76.2884 27.1299 76.3864 27.9797 76.6762 28.7831C76.966 29.5864 77.4409 30.3249 78.0697 30.9498C78.6985 31.5747 79.4667 32.0717 80.3236 32.4079C81.1805 32.7442 82.1065 32.9121 83.0405 32.9004H96.4712L95.2466 45.1789Z" fill="#FF6875"/>
</svg>
