<svg width="40" height="26" viewBox="0 0 40 26" fill="none" xmlns="http://www.w3.org/2000/svg">
<path d="M2.5128 0.188232H37.5128C37.7361 0.192523 37.9564 0.240837 38.1611 0.330322C38.3658 0.419807 38.5509 0.548678 38.7057 0.709717C38.8605 0.870756 38.982 1.06075 39.0633 1.2688C39.1447 1.47685 39.1843 1.69878 39.1798 1.92212V23.5964C39.1843 23.8198 39.1447 24.0417 39.0633 24.2498C38.982 24.4578 38.8605 24.6478 38.7057 24.8088C38.5509 24.9699 38.3658 25.0987 38.1611 25.1882C37.9564 25.2777 37.7361 25.326 37.5128 25.3303H2.5128C2.28945 25.326 2.06916 25.2777 1.86448 25.1882C1.6598 25.0987 1.47474 24.9699 1.31993 24.8088C1.16511 24.6478 1.04349 24.4578 0.962139 24.2498C0.880785 24.0417 0.841297 23.8198 0.845806 23.5964V1.92212C0.841297 1.69878 0.880785 1.47685 0.962139 1.2688C1.04349 1.06075 1.16511 0.870756 1.31993 0.709717C1.47474 0.548678 1.6598 0.419807 1.86448 0.330322C2.06916 0.240837 2.28945 0.192523 2.5128 0.188232Z" fill="url(#paint0_linear_0_815)"/>
<defs>
<linearGradient id="paint0_linear_0_815" x1="20.0128" y1="25.3303" x2="20.0128" y2="0.188232" gradientUnits="userSpaceOnUse">
<stop stop-color="#E59703"/>
<stop offset="0.231" stop-color="#E59703"/>
<stop offset="0.234" stop-color="white"/>
<stop offset="0.761" stop-color="white"/>
<stop offset="0.766" stop-color="#5457BB"/>
<stop offset="1" stop-color="#5457BB"/>
</linearGradient>
</defs>
</svg>
